<?xml version="1.0" encoding="utf-8"?>
<!-- Generator: Adobe Illustrator 27.0.0, SVG Export Plug-In . SVG Version: 6.00 Build 0)  -->
<svg version="1.1" id="Layer_1" xmlns="http://www.w3.org/2000/svg" xmlns:xlink="http://www.w3.org/1999/xlink" x="0px" y="0px"
	 viewBox="0 0 512 512" style="enable-background:new 0 0 512 512;" xml:space="preserve">
<style type="text/css">
	.st0{opacity:0.45;fill:#0034AA;}
	.st1{fill:#EC567C;}
	.st2{fill:#4959BB;}
	.st3{fill:#3EBCF9;}
	.st4{fill:#0034AA;}
	.st5{fill:#FFFFFF;}
</style>
<g>
	<path class="st0" d="M282.72,409.8H105.54c-46.11,0-83.5-37.39-83.5-83.5V84.29c0-46.11,37.39-83.5,83.5-83.5h1.22
		c6.4,0.17,12.68,1.51,18.49,3.9c6.22,2.5,11.98,6.28,16.8,11.11l87.28,86.41h-75.88c-37.62,0-68.09,30.47-68.09,68.09v17.74
		c0,16.98,6.8,33.26,18.9,45.18L282.72,409.8z"/>
	<path class="st1" d="M282.72,409.8H107.75c-46.11,0-83.5-37.39-83.5-83.5V84.29c0-45.76,36.87-82.98,82.51-83.5h0.99
		c6.8,0,13.55,1.34,19.71,3.9c6.22,2.5,11.98,6.28,16.8,11.11l87.28,86.41h-78.09c-37.62,0-68.09,30.47-68.09,68.09v17.74
		c0,16.98,6.8,33.26,18.9,45.18L282.72,409.8z"/>
	<path class="st2" d="M428.84,323.97v17.73c0,37.62-30.47,68.09-68.03,68.09h-78.09L104.26,233.21
		c-12.09-11.92-18.9-28.2-18.9-45.18v-17.74c0-37.62,30.47-68.09,68.09-68.09h78.09L410,278.79
		C422.1,290.71,428.84,307,428.84,323.97z"/>
	<path class="st3" d="M489.96,185.7v242.01c0,46.11-37.39,83.5-83.5,83.5c-6.86,0-13.49-1.34-19.71-3.9
		c-6.22-2.5-11.92-6.28-16.75-11.11l-87.28-86.41h78.09c37.56,0,68.03-30.47,68.03-68.09v-17.73c0-16.98-6.74-33.26-18.84-45.18
		L231.55,102.2h174.91C452.57,102.2,489.96,139.59,489.96,185.7z"/>
</g>
</svg>
